<svg id="Layer_1" data-name="Layer 1" xmlns="http://www.w3.org/2000/svg" viewBox="0 0 92.78 36.94"><defs><style>.cls-1{fill:#95a5a5;}.cls-2{fill:#bdc3c7;}.cls-3{fill:#cc66a1;}.cls-4{fill:#804169;}.cls-5{fill:#d1d4d1;}.cls-6{fill:#67b9cc;}.cls-7{font-size:24px;}.cls-7,.cls-9{fill:#f2f2f2;font-family:CoolveticaRg-Regular, Coolvetica;}.cls-8{letter-spacing:-0.07em;}.cls-9{font-size:17px;}.cls-10{letter-spacing:-0.01em;}</style></defs><title>logo</title><path class="cls-1" d="M32.73,19.46a16.42,16.42,0,0,0,0-5.68H29.25a12.94,12.94,0,0,0-1.73-4.17L30,7.15a16,16,0,0,0-4-4L23.5,5.59a12.94,12.94,0,0,0-4.17-1.73V.38a16.42,16.42,0,0,0-5.68,0V32.86a16.42,16.42,0,0,0,5.68,0V29.38a12.72,12.72,0,0,0,4.17-1.73L26,30.11a16,16,0,0,0,4-4l-2.46-2.46a12.75,12.75,0,0,0,1.73-4.17ZM16.49,13.21a3.41,3.41,0,0,1,0,6.82Z" transform="translate(0 -0.13)"/><path class="cls-2" d="M23.88,16.62A7.37,7.37,0,0,1,16.49,24V20a3.41,3.41,0,0,0,0-6.82v-4a7.39,7.39,0,0,1,7.39,7.39Z" transform="translate(0 -0.13)"/><path class="cls-3" d="M16.49,5V27.42a5.69,5.69,0,0,1-5.69,5.69,4.58,4.58,0,0,1-.64,0,1.46,1.46,0,0,1-.22,0,3.69,3.69,0,0,1-.56-.11l-.23-.06-.32-.11a4.25,4.25,0,0,1-.49-.21,5.47,5.47,0,0,1-.71-.41L7.4,32a5.73,5.73,0,0,1-1-.89l-.2-.27a5.09,5.09,0,0,1-.31-.45l-.08-.14A1.83,1.83,0,0,1,5.73,30a1.3,1.3,0,0,1-.08-.17,3.27,3.27,0,0,1-.14-.33,3,3,0,0,1-.15-.42,1.6,1.6,0,0,1-.05-.21.47.47,0,0,1,0-.16,1.8,1.8,0,0,1,0-.19l-.2,0a4.84,4.84,0,0,1-3.88-4.74,4.33,4.33,0,0,1,.07-.8c0-.11,0-.21.06-.32s.08-.31.13-.46.1-.25.15-.37a4,4,0,0,1,.37-.68l.22-.32A5.12,5.12,0,0,1,0,16.62c0-.1,0-.2,0-.3a1.64,1.64,0,0,1,0-.22,2.3,2.3,0,0,1,0-.26c0-.11,0-.21.06-.32a2.14,2.14,0,0,1,.09-.34,4.83,4.83,0,0,1,.65-1.4h0v0a4.59,4.59,0,0,1,.48-.61A.93.93,0,0,1,1.5,13a5.23,5.23,0,0,1,1.36-1A4.48,4.48,0,0,1,2.27,9.8,4.56,4.56,0,0,1,6.82,5.25h0a2.72,2.72,0,0,1,0-.28,4.84,4.84,0,1,1,9.67,0Z" transform="translate(0 -0.13)"/><path class="cls-4" d="M11.9,7.52a.56.56,0,0,1-.5-.28A4,4,0,0,0,8,5.25a.57.57,0,0,1-.57-.57A.58.58,0,0,1,8,4.11a5.15,5.15,0,0,1,4.43,2.56.58.58,0,0,1,0,.57A.55.55,0,0,1,11.9,7.52Z" transform="translate(0 -0.13)"/><path class="cls-4" d="M4,11.5a.57.57,0,0,1-.56-.44.56.56,0,0,1,.31-.63,5.6,5.6,0,0,1,2.5-.59.57.57,0,0,1,.57.57.56.56,0,0,1-.57.57,4.49,4.49,0,0,0-2,.47A.74.74,0,0,1,4,11.5Z" transform="translate(0 -0.13)"/><path class="cls-4" d="M3.41,22.51A.57.57,0,0,1,3,22.27a.59.59,0,0,1-.08-.5c0-.15.1-.29.16-.43a4.46,4.46,0,0,1,.43-.77,2.31,2.31,0,0,1,.25-.36,5.27,5.27,0,0,1,2.68-1.86.57.57,0,0,1,.56.13.59.59,0,0,1,.16.55.56.56,0,0,1-.39.41A4.22,4.22,0,0,0,4.6,20.92a2.27,2.27,0,0,0-.18.25,4.19,4.19,0,0,0-.34.62C4,21.9,4,22,4,22.11A.56.56,0,0,1,3.41,22.51Z" transform="translate(0 -0.13)"/><path class="cls-4" d="M6.36,27.42A.57.57,0,0,1,5.8,27,6.3,6.3,0,0,1,6.94,22a.55.55,0,0,1,.52-.22.56.56,0,0,1,.46.34.58.58,0,0,1-.07.57,5.07,5.07,0,0,0-.93,4,.62.62,0,0,1-.09.42.53.53,0,0,1-.36.24Z" transform="translate(0 -0.13)"/><path class="cls-5" d="M16.49,7.91V9.79l-2.12,2.82a1.13,1.13,0,0,1-.92.46A1.22,1.22,0,0,1,13,13l-2.5-1.1a.56.56,0,0,1-.34-.46.58.58,0,0,1,.8-.59l2.5,1.11Z" transform="translate(0 -0.13)"/><path class="cls-5" d="M16.49,14.92v1.13H10.8a.57.57,0,1,1,0-1.13Z" transform="translate(0 -0.13)"/><path class="cls-5" d="M16.49,18.33v1.13H14.21a.57.57,0,0,1,0-1.13Z" transform="translate(0 -0.13)"/><path class="cls-5" d="M16.49,21.74v1.14H11.27l-.48,2.38a.56.56,0,0,1-.56.46h-.11a.55.55,0,0,1-.36-.25A.57.57,0,0,1,9.68,25l.48-2.39a1.13,1.13,0,0,1,1.11-.91Z" transform="translate(0 -0.13)"/><circle class="cls-6" cx="9.67" cy="10.8" r="1.14"/><circle class="cls-6" cx="9.67" cy="15.35" r="1.14"/><circle class="cls-6" cx="13.08" cy="18.76" r="1.14"/><circle class="cls-6" cx="10.23" cy="26.15" r="1.14"/><text class="cls-7" transform="translate(35.95 21.61)">U<tspan class="cls-8" x="14.06" y="0">D</tspan><tspan x="26.9" y="0">AK</tspan></text><text class="cls-9" transform="translate(30.73 32.98)">sy<tspan class="cls-10" x="16.56" y="0">s</tspan><tspan x="24.48" y="0">tems</tspan></text></svg>