<svg id="Layer_1" data-name="Layer 1" xmlns="http://www.w3.org/2000/svg" viewBox="0 0 80.36 24.5"><defs><style>.cls-1{fill:#fff;}.cls-2{isolation:isolate;font-size:18px;font-family:CoolveticaRg-Regular, Coolvetica;letter-spacing:0.18em;}.cls-3{fill:#fe946f;}</style></defs><title>logo</title><path d="M28.28.76V5.84c0,2.23,1.26,2.81,2.44,2.81,1.41,0,2.45-.59,2.45-2.81V.76h.66V5.81c0,2.62-1.39,3.44-3.13,3.44s-3.1-.9-3.1-3.31V.76Z" transform="translate(0 0.04)"/><path d="M36.18.76H39a3.78,3.78,0,0,1,3.9,3.65,3.69,3.69,0,0,1,0,.47c0,2.51-1.56,4.27-3.91,4.27h-2.8Zm.65,7.79h2c2.22,0,3.31-1.56,3.31-3.63,0-1.85-1-3.56-3.31-3.56h-2Z" transform="translate(0 0.04)"/><path d="M45.5,6.25l-1.07,2.9h-.66L46.85.76h.77l3.21,8.39h-.71L49,6.25Zm3.32-.6c-.94-2.49-1.42-3.71-1.59-4.26h0c-.2.64-.74,2.13-1.5,4.26Z" transform="translate(0 0.04)"/><path d="M52.32.76H53V5.12c.67-.65,3.07-2.9,4.57-4.36h.86L54.64,4.33l4,4.82h-.8l-3.65-4.4L53,5.81V9.15h-.65Z" transform="translate(0 0.04)"/><rect x="26.48" y="11.28" width="46.19" height="9.09"/><path class="cls-1" d="M28.8,16.74a1.43,1.43,0,0,0,1.58,1.2c1,0,1.42-.51,1.42-1.12s-.28-1-1.52-1.33-1.69-.68-1.69-1.49.53-1.42,1.73-1.42A1.64,1.64,0,0,1,32.15,14H31.7a1.25,1.25,0,0,0-1.4-1c-.81,0-1.25.38-1.25,1s.37.86,1.4,1.11c1.58.39,1.81,1,1.81,1.7s-.6,1.53-1.9,1.53a1.79,1.79,0,0,1-2-1.53v0Z" transform="translate(0 0.04)"/><path class="cls-1" d="M36.14,18.25v-2.1a.29.29,0,0,0,0-.13l-2-3.37h.5l1.78,3c.24-.41,1.22-2.05,1.82-3h.48l-2.09,3.4a.24.24,0,0,0,0,.12v2.08Z" transform="translate(0 0.04)"/><path class="cls-1" d="M40.88,16.74a1.46,1.46,0,0,0,1.59,1.2c1,0,1.41-.51,1.41-1.12s-.28-1-1.51-1.33-1.69-.68-1.69-1.49.53-1.42,1.73-1.42A1.63,1.63,0,0,1,44.23,14h-.44a1.25,1.25,0,0,0-1.4-1c-.81,0-1.25.38-1.25,1s.37.86,1.4,1.11c1.57.39,1.81,1,1.81,1.7s-.6,1.53-1.9,1.53a1.79,1.79,0,0,1-2-1.53v0Z" transform="translate(0 0.04)"/><path class="cls-1" d="M48.11,13.05H46.23v-.4h4.2v.4H48.55v5.2h-.44Z" transform="translate(0 0.04)"/><path class="cls-1" d="M56,15.5H53.12v2.35h3.13l-.06.4h-3.5v-5.6h3.43v.4h-3v2H56Z" transform="translate(0 0.04)"/><path class="cls-1" d="M63.63,15.67V13h0c-.22.75-1.36,3.51-2.07,5.28h-.42c-.54-1.37-1.71-4.44-2-5.29h0c0,.64,0,2,0,2.9v2.39h-.43v-5.6h.65c.77,1.92,1.73,4.43,1.94,5.06h0c.12-.41,1.24-3.2,2-5.06H64v5.6h-.43Z" transform="translate(0 0.04)"/><path class="cls-1" d="M67.07,16.74a1.44,1.44,0,0,0,1.58,1.2c1,0,1.42-.51,1.42-1.12s-.28-1-1.52-1.33-1.69-.68-1.69-1.49.54-1.42,1.73-1.42A1.64,1.64,0,0,1,70.42,14H70a1.25,1.25,0,0,0-1.4-1c-.81,0-1.25.38-1.25,1s.37.86,1.4,1.11c1.58.39,1.81,1,1.81,1.7s-.6,1.53-1.9,1.53a1.79,1.79,0,0,1-2-1.55v0Z" transform="translate(0 0.04)"/><text class="cls-2" transform="translate(73.75 20.31)">.</text><path class="cls-3" d="M7.64,11H6.79V8.5a.43.43,0,0,1,.13-.3l1.7-1.7a.43.43,0,0,1,.3-.13h4.92L15,5.22l.6.6L14.31,7.1a.42.42,0,0,1-.3.12H9.09L7.64,8.67Z" transform="translate(0 0.04)"/><path class="cls-3" d="M14.86,10.2H10.19V9.35h4.5L15.84,8.2l.6.6-1.28,1.27A.43.43,0,0,1,14.86,10.2Z" transform="translate(0 0.04)"/><path class="cls-3" d="M13.59,3.83h-.85V2.55a.42.42,0,0,1,.12-.3L14.14.94l.6.6L13.59,2.73Z" transform="translate(0 0.04)"/><path class="cls-3" d="M18.68,15.72h-.84v-1.1l-1.15-1.15a.43.43,0,0,1-.13-.3v-1.7a.43.43,0,0,1,.13-.3L18,9.94a.43.43,0,0,1,.3-.13h1.27v.85H18.44l-1,1V13l1.15,1.15a.42.42,0,0,1,.12.3Z" transform="translate(0 0.04)"/><path class="cls-3" d="M17,5.94h-.43V5.1h.25l.72-.73a.47.47,0,0,1,.31-.12h1.27V5.1H18l-.72.72A.44.44,0,0,1,17,5.94Z" transform="translate(0 0.04)"/><path class="cls-3" d="M6.37,4.68H5.52V3.58L4.37,2.43l.6-.6L6.25,3.1a.47.47,0,0,1,.12.3Z" transform="translate(0 0.04)"/><path class="cls-3" d="M3.4,8.07H2.55V7.22a.42.42,0,0,1,.12-.28l.85-.85a.42.42,0,0,1,.3-.15H6.37v.85H4l-.6.6Z" transform="translate(0 0.04)"/><path class="cls-3" d="M21.23,9.35h-.85V8.67l-.6-.6H18.26V7.22H20a.43.43,0,0,1,.3.13l.85.85a.42.42,0,0,1,.12.3Z" transform="translate(0 0.04)"/><path class="cls-3" d="M9.34,4.68H8.49V3.83a.43.43,0,0,1,.13-.3l.85-.85a.43.43,0,0,1,.3-.13h.85V3.4H9.94l-.6.6Z" transform="translate(0 0.04)"/><path class="cls-3" d="M20.81,13.59H20a.42.42,0,0,1-.3-.12l-.85-.85.6-.6.72.72h.68Z" transform="translate(0 0.04)"/><rect class="cls-3" x="15.29" y="12.35" width="1.7" height="0.85"/><path d="M22.81,6.07l-1.7-1.7a.47.47,0,0,0-.3-.12H19.53V2.94a.42.42,0,0,0-.12-.3L17.71.94a.43.43,0,0,0-.3-.13h-2.8L13.89.09a.43.43,0,0,0-.3-.13H6.79a.4.4,0,0,0-.26.1l-2,1.6H3a.43.43,0,0,0-.3.13L.12,4.37A.43.43,0,0,0,0,4.68V8.5a.38.38,0,0,0,.1.27l2.12,2.55a.45.45,0,0,0,.33.15H7L8.62,13a.43.43,0,0,0,.3.13h3.63l5.39,6.22a.41.41,0,0,0,.32.15.38.38,0,0,0,.15,0,.44.44,0,0,0,.27-.4v-3h2.13a.42.42,0,0,0,.3-.12l1.7-1.7a.42.42,0,0,0,.12-.3V6.37A.42.42,0,0,0,22.81,6.07Zm-.73,7.77-1.45,1.45H18.68v-.85a.42.42,0,0,0-.12-.3L17.41,13V11.65l1-1H19.5V9.8H18.26a.4.4,0,0,0-.26.14l-1.27,1.27a.43.43,0,0,0-.13.3v.85H15.29v.85h1.27a.43.43,0,0,0,.13.3l1.15,1.15v3.28l-4.17-4.8h.77v-.85H9.09L7.64,10.87V8.67L9.09,7.22H14a.42.42,0,0,0,.3-.12l1.28-1.28-.6-.6L13.84,6.37H8.92a.43.43,0,0,0-.3.13L6.92,8.2a.43.43,0,0,0-.13.3v2.12h-4L.85,8.34V4.85l2.3-2.3H4.5l1,1v1.1h.85V3.4a.47.47,0,0,0-.12-.3l-.94-.94L6.94.85h6.47l.43.43-1,1a.42.42,0,0,0-.12.3V3.83h.85V2.73l1-1h2.62l1.45,1.45v1.1H17.8a.47.47,0,0,0-.31.12l-.72.73h-.25v.81H17a.43.43,0,0,0,.3-.13L18,5.1h2.62l1.45,1.45Z" transform="translate(0 0.04)"/><path d="M14.69,9.35h-4.5v.85h4.67a.43.43,0,0,0,.3-.13L16.44,8.8l-.6-.6Z" transform="translate(0 0.04)"/><path d="M3.52,6.07l-.85.87a.42.42,0,0,0-.12.3v.85H3.4V7.4L4,6.8H6.37V5.94H3.82A.43.43,0,0,0,3.52,6.07Z" transform="translate(0 0.04)"/><path d="M20,7.22H18.3v.85h1.52l.6.6v.68h.85V8.5a.42.42,0,0,0-.12-.3l-.85-.85A.43.43,0,0,0,20,7.22Z" transform="translate(0 0.04)"/><path d="M9.47,2.68l-.85.85a.43.43,0,0,0-.13.3v.85h.85V4l.6-.6h.68V2.55H9.77A.43.43,0,0,0,9.47,2.68Z" transform="translate(0 0.04)"/><path d="M19.41,12l-.6.6.85.85a.42.42,0,0,0,.3.12h.85v-.85h-.68Z" transform="translate(0 0.04)"/></svg>